<svg width="512" height="512" viewBox="0 0 512 512" fill="none" xmlns="http://www.w3.org/2000/svg">
<path d="M0 256C0 158.687 20.4522 87.04 53.76 53.76C87.0678 20.48 158.753 0 256 0C353.355 0 424.96 20.4172 458.24 53.76C491.52 87.1028 512 158.795 512 256C512 353.323 491.556 424.96 458.24 458.24C424.924 491.52 353.237 512 256 512C158.796 512 87.1038 491.52 53.76 458.24C20.4162 424.96 0 353.356 0 256Z" fill="white"/>
<path fill-rule="evenodd" clip-rule="evenodd" d="M165.542 116.833C173.228 116.833 179.459 123.064 179.459 130.75V151.625H200.334C208.02 151.625 214.251 157.856 214.251 165.542C214.251 173.228 208.02 179.458 200.334 179.458H179.459V200.333C179.459 208.019 173.228 214.25 165.542 214.25C157.856 214.25 151.626 208.019 151.626 200.333V179.458H130.751C123.065 179.458 116.834 173.228 116.834 165.542C116.834 157.856 123.065 151.625 130.751 151.625H151.626V130.75C151.626 123.064 157.856 116.833 165.542 116.833Z" fill="#4285F4"/>
<path fill-rule="evenodd" clip-rule="evenodd" d="M134.826 301.826C140.261 296.391 149.072 296.391 154.507 301.826L172.5 319.819L190.493 301.826C195.928 296.391 204.739 296.391 210.174 301.826C215.609 307.26 215.609 316.072 210.174 321.507L192.181 339.5L210.174 357.493C215.609 362.927 215.609 371.739 210.174 377.173C204.739 382.608 195.928 382.608 190.493 377.173L172.5 359.181L154.507 377.173C149.072 382.608 140.261 382.608 134.826 377.173C129.391 371.739 129.391 362.927 134.826 357.493L152.819 339.5L134.826 321.507C129.391 316.072 129.391 307.26 134.826 301.826Z" fill="#EA4335"/>
<path fill-rule="evenodd" clip-rule="evenodd" d="M381.25 172.5C381.25 180.186 375.02 186.417 367.333 186.417H311.667C303.98 186.417 297.75 180.186 297.75 172.5C297.75 164.814 303.98 158.583 311.667 158.583H367.333C375.02 158.583 381.25 164.814 381.25 172.5Z" fill="#34A853"/>
<path fill-rule="evenodd" clip-rule="evenodd" d="M297.75 304.708C297.75 297.022 303.98 290.792 311.667 290.792H367.333C375.02 290.792 381.25 297.022 381.25 304.708C381.25 312.395 375.02 318.625 367.333 318.625H311.667C303.98 318.625 297.75 312.395 297.75 304.708ZM297.75 346.458C297.75 338.772 303.98 332.542 311.667 332.542H367.333C375.02 332.542 381.25 338.772 381.25 346.458C381.25 354.145 375.02 360.375 367.333 360.375H311.667C303.98 360.375 297.75 354.145 297.75 346.458Z" fill="#FBBC05"/>
<path fill-rule="evenodd" clip-rule="evenodd" d="M255.999 102.917C263.686 102.917 269.916 109.147 269.916 116.833V242.083H395.166C402.852 242.083 409.083 248.314 409.083 256C409.083 263.686 402.852 269.917 395.166 269.917H269.916V395.167C269.916 402.853 263.686 409.083 255.999 409.083C248.313 409.083 242.083 402.853 242.083 395.167V269.917H116.833C109.147 269.917 102.916 263.686 102.916 256C102.916 248.314 109.147 242.083 116.833 242.083H242.083V116.833C242.083 109.147 248.313 102.917 255.999 102.917Z" fill="black"/>
</svg>
