<svg width="512" height="512" viewBox="0 0 512 512" fill="none" xmlns="http://www.w3.org/2000/svg">
<path d="M0 256C0 158.687 20.4522 87.04 53.76 53.76C87.0678 20.48 158.753 0 256 0C353.355 0 424.96 20.4172 458.24 53.76C491.52 87.1028 512 158.795 512 256C512 353.323 491.556 424.96 458.24 458.24C424.924 491.52 353.237 512 256 512C158.796 512 87.1038 491.52 53.76 458.24C20.4162 424.96 0 353.356 0 256Z" fill="white"/>
<path d="M140 229.943C140 180.001 140 155.03 155.515 139.515C171.03 124 196.001 124 245.943 124H265.807C315.748 124 340.72 124 356.234 139.515C371.75 155.03 371.75 180.001 371.75 229.943V282.914C371.75 332.855 371.75 357.827 356.234 373.341C340.72 388.857 315.748 388.857 265.807 388.857H245.943C196.001 388.857 171.03 388.857 155.515 373.341C140 357.827 140 332.855 140 282.914V229.943Z" fill="#F4B400"/>
<path d="M206.215 289.535H259.186ZM206.215 223.321H312.158Z" fill="white"/>
<path d="M206.215 289.535H259.186M206.215 223.321H312.158" stroke="white" stroke-width="19.8643" stroke-linecap="round"/>
</svg>
